<?xml version="1.0" standalone="no"?>
<!DOCTYPE svg PUBLIC "-//W3C//DTD SVG 20010904//EN"
 "http://www.w3.org/TR/2001/REC-SVG-20010904/DTD/svg10.dtd">
<svg version="1.0" xmlns="http://www.w3.org/2000/svg"
 width="512.000000pt" height="512.000000pt" viewBox="0 0 512.000000 512.000000"
 preserveAspectRatio="xMidYMid meet">

<g transform="translate(0.000000,512.000000) scale(0.100000,-0.100000)"
fill="#000000" stroke="none">
<path d="M360 4951 c-30 -10 -69 -25 -86 -34 -54 -28 -126 -109 -158 -177
l-31 -65 0 -1155 0 -1155 33 -67 c41 -84 128 -167 209 -200 58 -23 59 -23 591
-26 l532 -3 0 -164 0 -164 -243 -3 -243 -3 -66 -33 c-82 -40 -142 -105 -163
-175 -10 -34 -15 -94 -15 -180 l0 -129 29 -29 29 -29 447 0 c422 0 446 -1 441
-18 -39 -121 -75 -428 -56 -477 22 -57 -12 -54 752 -55 l708 0 19 -38 c46 -90
148 -148 248 -140 97 7 179 61 218 144 l16 34 710 0 710 0 24 25 c22 21 25 33
25 92 -1 151 -42 373 -100 538 -132 371 -427 722 -774 920 -17 10 -16 14 13
57 71 105 66 11 69 1252 2 986 1 1126 -13 1180 -37 142 -145 250 -284 282 -45
11 -383 14 -1796 13 -1638 0 -1743 -1 -1795 -18z m3605 -168 c46 -24 75 -54
101 -103 18 -34 19 -81 19 -1160 l0 -1125 -28 -47 c-47 -80 -52 -81 -175 -38
-352 124 -753 125 -1112 3 -58 -19 -126 -46 -153 -59 l-47 -24 -1083 2 -1084
3 -49 30 c-30 19 -60 49 -79 79 l-30 49 -3 1111 c-2 1005 -1 1115 14 1154 27
73 77 119 154 143 14 4 810 7 1770 6 l1745 -2 40 -22z m-725 -2677 l0 -134
-67 -7 c-93 -10 -236 -47 -338 -88 -60 -24 -87 -31 -93 -23 -35 45 -123 219
-115 227 15 15 171 76 268 104 103 30 228 53 298 54 l47 1 0 -134z m390 109
c101 -21 250 -69 333 -108 l68 -32 -67 -115 c-36 -63 -67 -116 -69 -118 -1 -1
-31 11 -66 27 -91 41 -222 78 -334 93 l-95 12 0 135 0 134 78 -6 c42 -3 111
-13 152 -22z m-1380 -186 c-79 -62 -190 -171 -241 -234 l-44 -55 -175 2 -175
3 -3 163 -2 162 346 0 346 0 -52 -41z m295 -154 l64 -110 -36 -30 c-125 -103
-178 -153 -230 -216 -32 -40 -67 -82 -78 -95 l-20 -23 -107 62 c-59 34 -110
65 -114 69 -11 12 85 137 181 237 87 90 251 224 268 218 5 -1 37 -52 72 -112z
m1715 55 c104 -78 228 -202 308 -309 l62 -84 -92 -55 c-159 -92 -136 -91 -196
-13 -59 78 -200 216 -261 256 -22 15 -41 32 -41 38 0 13 123 227 132 227 3 0
43 -27 88 -60z m-668 -148 c425 -115 737 -435 829 -851 10 -47 19 -103 19
-123 l0 -38 -425 0 c-234 0 -425 2 -425 4 0 3 59 155 130 340 72 184 130 345
130 356 0 46 -65 83 -114 64 -9 -4 -125 -140 -257 -304 -166 -206 -249 -300
-266 -305 -33 -8 -120 -96 -129 -129 l-6 -26 -440 0 -440 0 7 58 c22 175 111
397 214 533 147 193 373 348 595 409 127 35 162 39 336 36 128 -3 182 -8 242
-24z m-1742 -206 c0 -2 -15 -30 -33 -63 -18 -32 -46 -88 -62 -125 l-30 -67
-422 -1 -423 0 0 71 c0 96 18 131 83 164 l51 25 418 0 c230 0 418 -2 418 -4z
m187 -237 c48 -29 98 -58 109 -65 l22 -13 -35 -86 c-41 -102 -78 -245 -88
-337 l-7 -68 -136 0 -135 0 6 75 c9 98 32 209 68 323 36 111 85 222 98 222 5
0 49 -23 98 -51z m2686 34 c3 -10 23 -61 45 -113 57 -138 81 -237 107 -443 l6
-48 -138 3 -138 3 -8 70 c-10 97 -40 213 -83 323 -21 51 -35 94 -33 96 14 13
216 125 225 126 7 0 14 -8 17 -17z m-1234 -414 c-15 -44 -26 -56 -39 -43 -7 7
-1 22 17 46 16 20 29 35 31 34 1 -2 -3 -18 -9 -37z m-120 -183 c57 -30 68
-110 22 -157 -85 -84 -223 32 -150 125 36 45 80 56 128 32z"/>
<path d="M399 4693 c-63 -38 -59 26 -59 -1061 0 -960 1 -991 19 -1013 l19 -24
1787 0 1787 0 19 24 c18 22 19 53 19 1013 0 1090 4 1024 -60 1062 -26 15 -175
16 -1767 16 -1589 -1 -1740 -2 -1764 -17z m3431 -1043 l0 -900 -1665 0 -1665
0 0 900 0 900 1665 0 1665 0 0 -900z"/>
<path d="M3125 4511 c-126 -33 -204 -131 -205 -257 0 -34 5 -76 11 -94 l12
-32 -129 -129 -129 -129 -50 16 c-53 16 -125 13 -171 -8 -23 -11 -29 -7 -85
48 l-60 60 17 60 c21 77 7 152 -40 221 -62 91 -195 136 -297 101 -93 -31 -171
-122 -185 -217 -9 -56 10 -137 42 -184 l25 -37 -93 -161 -94 -161 -64 -3 c-36
-1 -78 -8 -93 -16 -27 -12 -30 -11 -82 42 l-55 54 16 50 c29 93 3 195 -67 264
-167 168 -453 48 -453 -189 0 -54 5 -75 32 -126 l33 -60 -147 -255 c-159 -274
-170 -304 -125 -340 32 -26 83 -24 108 4 11 12 85 133 163 269 l143 248 36 -6
c20 -3 61 2 91 10 l55 15 54 -54 c52 -51 53 -54 42 -85 -33 -95 0 -224 74
-289 54 -47 100 -64 175 -65 213 -2 343 234 225 409 l-26 37 94 161 94 162 74
7 c41 3 83 9 94 12 15 5 33 -7 79 -53 57 -58 58 -60 47 -92 -19 -55 -14 -148
13 -205 40 -86 144 -154 236 -154 45 0 123 28 166 59 83 61 124 194 90 291
l-16 45 128 127 127 128 50 -16 c120 -37 249 16 311 128 25 46 29 64 29 128 0
85 -20 134 -77 190 -59 59 -168 91 -243 71z m100 -165 c77 -32 85 -137 15
-184 -44 -30 -91 -24 -132 14 -61 60 -16 179 70 183 7 1 28 -6 47 -13z m-1075
-151 c72 -65 26 -185 -71 -185 -105 0 -143 132 -57 195 29 20 101 15 128 -10z
m-940 -290 c32 -17 60 -61 60 -95 0 -93 -120 -139 -183 -71 -48 52 -41 127 17
162 38 23 67 24 106 4z m1406 -184 c67 -41 70 -135 4 -179 -97 -65 -211 61
-139 152 38 48 85 57 135 27z m-936 -286 c32 -17 60 -61 60 -95 0 -35 -28 -79
-62 -96 -39 -20 -83 -12 -120 23 -23 22 -28 35 -28 73 0 38 5 51 28 72 44 41
75 47 122 23z"/>
<path d="M1885 285 c-16 -15 -25 -36 -25 -55 0 -19 9 -40 25 -55 l24 -25 1410
0 1410 0 27 23 c35 31 37 77 4 112 l-23 25 -1414 0 -1414 0 -24 -25z"/>
</g>
</svg>
