<?xml version="1.0" standalone="no"?>
<!DOCTYPE svg PUBLIC "-//W3C//DTD SVG 20010904//EN"
 "http://www.w3.org/TR/2001/REC-SVG-20010904/DTD/svg10.dtd">
<svg version="1.0" xmlns="http://www.w3.org/2000/svg"
 width="512.000000pt" height="512.000000pt" viewBox="0 0 512.000000 512.000000"
 preserveAspectRatio="xMidYMid meet">

<g transform="translate(0.000000,512.000000) scale(0.100000,-0.100000)"
fill="#000000" stroke="none">
<path d="M1160 5094 c-36 -7 -107 -34 -159 -60 -76 -38 -110 -62 -176 -128
-45 -44 -98 -110 -119 -145 -29 -51 -76 -170 -92 -238 -2 -7 -14 -13 -26 -13
-43 0 -188 -58 -255 -101 -126 -83 -224 -200 -280 -339 -55 -137 -53 -65 -53
-1803 0 -1791 -4 -1689 69 -1842 98 -205 262 -341 475 -395 78 -20 114 -20
1710 -20 1825 0 1702 -5 1861 74 182 90 314 248 371 444 l21 75 72 18 c242 61
428 241 513 494 l23 70 3 1635 c3 1825 7 1721 -67 1875 -76 160 -184 270 -336
344 -154 76 -34 71 -1857 70 -1355 0 -1644 -3 -1698 -15z m3355 -249 c185 -49
320 -202 346 -392 6 -52 9 -610 7 -1653 l-3 -1575 -22 -57 c-31 -82 -88 -164
-147 -211 -50 -39 -139 -87 -163 -87 -10 0 -13 299 -13 1463 0 912 -4 1495
-10 1550 -28 243 -179 458 -395 563 -162 78 -51 74 -1732 74 -1250 0 -1503 2
-1503 13 0 8 14 41 30 75 36 71 134 167 206 202 102 50 50 48 1744 49 1403 1
1603 -1 1655 -14z m-612 -590 c31 -8 77 -24 103 -36 61 -29 151 -114 191 -180
67 -112 63 -7 63 -1774 0 -1750 3 -1657 -57 -1767 -35 -64 -137 -159 -205
-191 -29 -13 -77 -30 -106 -36 -38 -8 -512 -11 -1640 -11 -1394 0 -1595 2
-1647 15 -180 47 -317 198 -345 381 -7 47 -10 567 -8 1654 l3 1585 24 63 c55
148 180 260 328 296 89 22 3213 23 3296 1z"/>
<path d="M2200 3333 c-70 -36 -70 -37 -70 -515 l0 -428 -434 0 -433 0 -34 -23
c-73 -49 -72 -155 0 -204 l34 -23 433 0 434 0 0 -425 c0 -471 1 -478 62 -515
39 -24 78 -25 122 -5 62 30 61 18 66 500 l5 440 440 5 c357 4 444 8 461 19 33
22 54 65 54 110 0 33 -7 49 -34 79 l-34 37 -444 5 -443 5 -5 442 -5 443 -31
31 c-39 39 -94 48 -144 22z"/>
</g>
</svg>
